<?xml version="1.0" encoding="UTF-8" standalone="no"?>
<svg
   height="236.30774"
   width="250.40724"
   version="1.0"
   viewBox="-76.17645 -128.1515 137.76486 227.12394"
   id="svg7"
   sodipodi:docname="doom-kyotonight-icon.svg"
   inkscape:version="1.3 (0e150ed6c4, 2023-07-21)"
   inkscape:export-filename="doom-kyotonight.png"
   inkscape:export-xdpi="96"
   inkscape:export-ydpi="96"
   xml:space="preserve"
   xmlns:inkscape="http://www.inkscape.org/namespaces/inkscape"
   xmlns:sodipodi="http://sodipodi.sourceforge.net/DTD/sodipodi-0.dtd"
   xmlns:xlink="http://www.w3.org/1999/xlink"
   xmlns="http://www.w3.org/2000/svg"
   xmlns:svg="http://www.w3.org/2000/svg"><sodipodi:namedview
     id="namedview7"
     pagecolor="#ffffff"
     bordercolor="#999999"
     borderopacity="1"
     inkscape:showpageshadow="2"
     inkscape:pageopacity="0"
     inkscape:pagecheckerboard="0"
     inkscape:deskcolor="#d1d1d1"
     inkscape:zoom="2.606867"
     inkscape:cx="85.735099"
     inkscape:cy="175.88162"
     inkscape:window-width="3440"
     inkscape:window-height="1369"
     inkscape:window-x="1912"
     inkscape:window-y="-8"
     inkscape:window-maximized="1"
     inkscape:current-layer="svg7" /><defs
     id="defs5"><rect
       x="-277.75769"
       y="22.784809"
       width="245.20796"
       height="257.14285"
       id="rect3" /><rect
       x="-253.88788"
       y="67.26944"
       width="173.59856"
       height="86.799278"
       id="rect2" /><linearGradient
       id="b"><stop
         offset="0"
         stop-color="#411f5d"
         id="stop1" /><stop
         offset="1"
         stop-color="#5b2a85"
         id="stop2" /></linearGradient><linearGradient
       id="a"><stop
         offset="0"
         stop-color="#8381c5"
         id="stop3" /><stop
         offset=".566"
         stop-color="#7e55b3"
         stop-opacity=".996"
         id="stop4" /><stop
         offset="1"
         stop-color="#a52ecb"
         stop-opacity=".992"
         id="stop5" /></linearGradient><linearGradient
       xlink:href="#a"
       id="d"
       gradientUnits="userSpaceOnUse"
       gradientTransform="matrix(0.87386,0,0,0.82818,244.806,249.69)"
       spreadMethod="pad"
       x1="-122.202"
       y1="-161.851"
       x2="236.614"
       y2="300.73999" /><linearGradient
       xlink:href="#b"
       id="e"
       gradientUnits="userSpaceOnUse"
       gradientTransform="matrix(0.98685,0,0,0.98685,1.833,1.934)"
       x1="447.80899"
       y1="396.60699"
       x2="173.94501"
       y2="66.017998" /><filter
       id="c"
       x="-0.05365821"
       width="1.1073164"
       y="-0.053115636"
       height="1.1062313"
       color-interpolation-filters="sRGB"><feGaussianBlur
         stdDeviation="8.785"
         id="feGaussianBlur5" /></filter></defs><text
     xml:space="preserve"
     transform="matrix(0.96113625,0,0,0.96113625,-241.48692,-117.78109)"
     id="text1"
     style="font-size:16px;font-family:Garamond;-inkscape-font-specification:Garamond;white-space:pre;shape-inside:url(#rect2);display:inline;fill:#000000;fill-opacity:0;stroke:#7aa2f7;stroke-width:4.969;stroke-dasharray:none;stroke-opacity:1" /><path
     d="m -29.997199,98.684842 c 0,0 13.238311,0.93342 30.26943505,-0.56299 6.89681555,-0.60579 33.08363495,-3.16936 52.66138495,-7.450001 0,0 23.870229,-5.093023 36.64031,-9.784874 13.362329,-4.908496 20.633359,-9.075457 23.905689,-14.978216 -0.14218,-1.210249 1.00806,-5.49957 -5.15431,-8.075836 C 92.57197,51.245478 74.300791,52.43699 38.14803,51.672738 -1.9451065,50.299339 -15.282005,43.608928 -22.386747,38.221033 -29.199739,32.754226 -25.773783,17.631591 3.4178186,4.3109384 18.122921,-2.7833358 75.766281,-15.873309 75.766281,-15.873309 c -19.41275,-9.566907 -55.61314,-26.384548 -63.05457,-30.015265 -6.5259094,-3.185404 -16.9707425,-7.980893 -19.234355,-13.783354 -2.5667725,-5.570443 6.06179755,-10.368605 10.8821251,-11.743329 15.5226899,-4.463844 37.4371599,-7.238034 57.3811089,-7.548951 10.025631,-0.157131 11.65275,-0.800363 11.65275,-0.800363 13.832471,-2.28675 22.938551,-11.721934 19.14442,-26.664039 -3.405809,-15.25169 -21.36913,-24.21415 -38.4398,-21.11166 -16.076019,2.92196 -54.82171645,14.14175 -54.82171645,14.14175 47.89270745,-0.41323 55.90892745,0.3838 59.48911745,5.37387 2.11404,2.94669 -0.961111,6.98728 -13.73393,9.066758 -13.905631,2.264685 -42.8114824,4.9914 -42.8114824,4.9914 -27.7301516,1.641513 -47.2629916,1.751838 -53.1215606,14.117005 -3.827026,8.078513 4.081206,15.22026 7.548072,19.691458 14.648114,16.239938 35.807406,24.999127 49.4273316,31.449499 5.1241584,2.427165 20.1599194,7.010026 20.1599194,7.010026 -44.184432,-2.423152 -76.05751,11.102774 -94.75398,26.6760774 -21.146503,19.4995576 -11.792248,42.7421586 31.531008,57.0530706 25.588602,8.45229 38.2789471,12.428019 76.447842,9.001251 22.48188,-1.208243 26.025859,-0.488787 26.249869,1.350645 0.315231,2.588305 -24.97085,9.019946 -31.874369,11.005814 -17.56229,5.050245 -63.60122,15.247678 -63.83128,15.297158 z"
     fill="#fff"
     fill-rule="evenodd"
     id="path7"
     style="fill:#f7768e;fill-opacity:1;stroke-width:0.669669" /><text
     xml:space="preserve"
     transform="matrix(0.96113625,0,0,0.96113625,139.35415,-148.1278)"
     id="text2"
     style="font-size:93.3333px;font-family:Garamond;-inkscape-font-specification:Garamond;white-space:pre;shape-inside:url(#rect3);display:inline;fill:#e0af68;fill-opacity:1;stroke:#e0af68;stroke-width:4.969;stroke-dasharray:none;stroke-opacity:1"><tspan
       x="-277.75781"
       y="114.66012"
       id="tspan1">凶&#10;</tspan><tspan
       x="-277.75781"
       y="244.9891"
       id="tspan2">運</tspan></text></svg>
