<?xml version="1.0" encoding="UTF-8" standalone="no"?>
<svg
   viewBox="0 0 48 48"
   version="1.1"
   id="svg24"
   sodipodi:docname="distributor-logo-slackware.svg"
   inkscape:version="1.1.1 (3bf5ae0d25, 2021-09-20)"
   xmlns:inkscape="http://www.inkscape.org/namespaces/inkscape"
   xmlns:sodipodi="http://sodipodi.sourceforge.net/DTD/sodipodi-0.dtd"
   xmlns:xlink="http://www.w3.org/1999/xlink"
   xmlns="http://www.w3.org/2000/svg"
   xmlns:svg="http://www.w3.org/2000/svg">
  <sodipodi:namedview
     id="namedview26"
     pagecolor="#ffffff"
     bordercolor="#666666"
     borderopacity="1.0"
     inkscape:pageshadow="2"
     inkscape:pageopacity="0.0"
     inkscape:pagecheckerboard="0"
     showgrid="false"
     inkscape:zoom="13.229167"
     inkscape:cx="27.174803"
     inkscape:cy="24.037795"
     inkscape:window-width="1838"
     inkscape:window-height="1088"
     inkscape:window-x="41"
     inkscape:window-y="71"
     inkscape:window-maximized="1"
     inkscape:current-layer="svg24" />
  <defs
     id="defs18">
    <linearGradient
       y1="545.8"
       x2="0"
       y2="517.8"
       gradientUnits="userSpaceOnUse"
       id="linearGradient4036">
      <stop
         stop-color="#3889e9"
         id="stop4032" />
      <stop
         offset="1"
         stop-color="#5ea5fb"
         id="stop4034"
         style="stop-color:#d8dee9;stop-opacity:1" />
    </linearGradient>
    <linearGradient
       y1="545.8"
       x2="0"
       y2="517.8"
       gradientUnits="userSpaceOnUse"
       id="linearGradient6">
      <stop
         stop-color="#3889e9"
         id="stop3869" />
      <stop
         offset="1"
         stop-color="#5ea5fb"
         id="stop3871" />
    </linearGradient>
    <linearGradient
       id="linearGradient2899"
       inkscape:swatch="solid">
      <stop
         style="stop-color:#030303;stop-opacity:1;"
         offset="0"
         id="stop2897" />
    </linearGradient>
    <linearGradient
       y1="545.8"
       x2="0"
       y2="517.8"
       gradientUnits="userSpaceOnUse"
       id="linearGradient6-3">
      <stop
         stop-color="#3889e9"
         id="stop2" />
      <stop
         offset="1"
         stop-color="#5ea5fb"
         id="stop4" />
    </linearGradient>
    <linearGradient
       id="0"
       gradientUnits="userSpaceOnUse"
       x1="396.12"
       y1="544.26"
       x2="395.64"
       y2="518.27">
      <stop
         stop-color="#030303"
         id="stop8"
         style="stop-color:#5e81ac;stop-opacity:1" />
      <stop
         offset="1"
         stop-color="#383838"
         id="stop10" />
    </linearGradient>
    <linearGradient
       id="1"
       x1="270.91"
       y1="568.02002"
       x2="270.39999"
       y2="536.47998"
       gradientUnits="userSpaceOnUse"
       xlink:href="#linearGradient6-3">
      <stop
         stop-color="#197cf1"
         id="stop13" />
      <stop
         offset="1"
         stop-color="#20bcfa"
         id="stop15" />
    </linearGradient>
  </defs>
  <circle
     cx="400.57"
     cy="531.8"
     r="14"
     fill="url(#0)"
     transform="matrix(1.71429 0 0 1.71429-662.72-887.65)"
     id="circle20"
     style="fill:#5e81ac;fill-opacity:1" />
  <path
     d="m265.72 566.04c2.445 1.098 4.691 1.697 7.186 1.697 6.837 0 11.228-3.643 11.228-9.03 0-4.591-2.894-7.336-8.583-8.08l-3.892-.499c-3.743-.499-5.589-1.946-5.589-4.391 0-3.094 2.645-5.29 6.637-5.29 2.595 0 4.691.998 5.739 2.545 1.048 1.547.749 3.344 2.695 3.344 1.148 0 1.846-.649 1.846-1.797 0-.1 0-.15 0-.25l-.349-5.09c-.1-1.297-.25-1.846-1.996-1.846-1.098 0-1.547.299-1.547 1.248-2.246-.898-4.192-1.447-6.188-1.447-6.288 0-10.779 3.942-10.779 8.783 0 4.891 3.194 7.236 9.681 8.134l3.593.499c3.094.449 4.741 2.046 4.741 4.591 0 2.994-2.745 5.29-7.086 5.29-3.493 0-6.04-1.397-7.086-3.543-.898-1.797-.649-3.693-2.695-3.693-1.497 0-1.896.699-1.896 2.096 0 .15 0 .299 0 .499l.299 5.639c.1 1.747.699 2.545 2.096 2.545 1.347 0 1.797-.499 1.946-1.946"
     transform="matrix(1.0077 0 0 .9079-250.84-477.67)"
     fill="url(#1)"
     id="path22"
     style="fill-opacity:1;fill:#d8dee9" />
</svg>
